<?xml version="1.0" encoding="UTF-8"?>
<svg id="Layer_2" data-name="Layer 2" xmlns="http://www.w3.org/2000/svg" viewBox="0 0 849.66 204.01">
  <defs>
    <style>
      .cls-1 {
        fill: #fff;
      }
    </style>
  </defs>
  <g id="Layer_1-2" data-name="Layer 1">
    <g>
      <path class="cls-1" d="M112.39.7C32.76.7,0,58.02,0,102.92c0,39.53,26.83,101.09,114.36,101.09,72.01,0,110.69-52.52,110.69-101.37C225.06,65.65,198.79.7,112.39.7ZM170.9,117.52c-8.49,33.87-45.05,53.16-78.13,41.74-2.42-.83-5.07-2.42-7.35-3.11-7.23-2.2-19.74,4.29-27.35,5.03-2.41.23-4.65-1.43-4.43-4.04.6-7.06,5.23-16.39,5.87-23.82-2.69-9.37-6.53-17.26-7.15-27.35-1.95-31.82,22.7-61.11,54.62-63.61,41.82-3.26,74.18,34.22,63.92,75.16Z"/>
      <path class="cls-1" d="M353.73,98.78c-1.73-8.64-9.79-16.99-28.8-16.99-14.98,0-22.18,4.32-22.18,10.66,0,12.1,23.62,13.25,47.52,19.01,23.62,6.05,47.52,16.42,47.52,46.66,0,8.93-3.74,45.5-70.85,45.5-55.87,0-72.29-23.33-72.86-44.06h43.78c3.74,8.64,11.23,16.13,30.53,16.13s27.07-3.74,27.07-11.23c0-12.38-25.06-14.4-50.11-20.45-25.05-5.76-50.11-15.55-50.11-42.91,0-25.34,23.04-48.67,67.68-48.67s67.68,17.28,70.85,46.37h-40.03Z"/>
      <path class="cls-1" d="M432.35,198.43V0h50.4v198.43h-50.4Z"/>
      <path class="cls-1" d="M575.2,139.39c0,13.25,10.94,32.54,40.03,32.54,13.25,0,24.48-4.32,31.68-14.69h47.23c-6.62,13.82-30.82,46.37-82.94,46.37-69.41,0-88.13-46.08-88.13-74.59,0-40.61,33.41-76.61,84.67-76.61,55.87,0,87.26,42.05,87.26,86.97h-119.81ZM644.32,113.76c-.86-15.55-12.38-29.66-33.98-29.66-19.3,0-32.25,11.81-34.56,29.66h68.54Z"/>
      <path class="cls-1" d="M785.15,198.43h-49.25V57.31h49.25v39.17c10.66-24.48,26.78-41.76,55.01-41.76h9.5v46.08h-6.05c-26.21,0-37.15,3.74-46.37,12.67-8.93,8.93-12.1,18.72-12.1,28.22v56.74Z"/>
    </g>
  </g>
</svg>